<svg width="500" height="500" viewBox="0 0 500 500" fill="none" xmlns="http://www.w3.org/2000/svg">
<rect width="500" height="500" fill="#0B0B0B"/>
<path d="M304.8 266C302.133 266 299.733 267.067 297.6 269.2C295.467 271.333 293.6 274.133 292 277.6C290.4 281.067 288.8 285.067 287.2 289.6C285.6 294.133 283.867 298.667 282 303.2C278.267 311.733 274.267 319.467 270 326.4C266 333.067 260.933 336.4 254.8 336.4C248.933 336.4 243.867 335.2 239.6 332.8C235.333 330.4 231.733 327.333 228.8 323.6C225.867 319.6 223.333 315.2 221.2 310.4C219.333 305.6 217.733 300.8 216.4 296C214.267 288.533 212.4 282 210.8 276.4C209.467 270.533 207.333 267.6 204.4 267.6C203.6 267.6 202.667 268.133 201.6 269.2C199.2 271.867 197.733 275.733 197.2 280.8C196.667 285.6 196.533 291.2 196.8 297.6C197.333 304 197.867 310.933 198.4 318.4C199.2 325.6 199.6 332.8 199.6 340C199.6 347.467 198.8 354.4 197.2 360.8C195.6 367.2 193.2 372.8 190 377.6C187.067 382.4 183.467 386.133 179.2 388.8C174.933 391.467 170 392.8 164.4 392.8C153.2 392.8 144.133 390.667 137.2 386.4C130.267 382.133 124.933 375.333 121.2 366C120.133 363.333 118.8 359.2 117.2 353.6C115.867 348 114.4 341.333 112.8 333.6C111.467 325.6 110.267 316.667 109.2 306.8C108.4 296.667 108 286 108 274.8C108 261.733 108 250 108 239.6C108.267 228.933 108.667 219.2 109.2 210.4C109.733 201.333 110.4 192.933 111.2 185.2C112.267 177.2 113.6 169.2 115.2 161.2C116.533 154 119.067 147.733 122.8 142.4C126.8 136.8 131.067 132.133 135.6 128.4C140.4 124.667 145.333 121.867 150.4 120C155.467 118.133 159.867 117.2 163.6 117.2C174.533 117.2 184 119.467 192 124C200 128.267 206.8 133.733 212.4 140.4C218.267 146.8 223.2 153.867 227.2 161.6C231.2 169.333 234.667 176.533 237.6 183.2C240.8 189.6 243.6 195.067 246 199.6C248.667 203.867 251.467 206 254.4 206C257.333 206 260.133 203.867 262.8 199.6C265.733 195.067 268.8 189.467 272 182.8C275.2 175.867 278.667 168.533 282.4 160.8C286.4 153.067 290.933 145.867 296 139.2C301.067 132.267 306.8 126.667 313.2 122.4C319.867 117.867 327.333 115.6 335.6 115.6C345.467 115.6 353.733 118.933 360.4 125.6C367.333 132.267 372.933 141.333 377.2 152.8C381.467 164 384.533 177.2 386.4 192.4C388.267 207.6 389.2 223.733 389.2 240.8C389.2 260.8 388.933 280 388.4 298.4C387.867 316.8 386.267 333.067 383.6 347.2C380.933 361.067 376.933 372.267 371.6 380.8C366.267 389.067 358.8 393.2 349.2 393.2C339.6 393.2 331.6 391.733 325.2 388.8C319.067 386.133 314.267 382.4 310.8 377.6C307.333 372.8 304.933 367.2 303.6 360.8C302.267 354.4 301.6 347.6 301.6 340.4C301.6 330 302 322.133 302.8 316.8C303.867 311.467 304.8 307.2 305.6 304C306.667 300.533 307.6 297.6 308.4 295.2C309.467 292.533 310 288.8 310 284C310 282.4 310 280.533 310 278.4C310 276.267 309.867 274.4 309.6 272.8C309.333 270.933 308.8 269.333 308 268C307.2 266.667 306.133 266 304.8 266Z" fill="white"/>
</svg>
