<svg width="1102" height="293" viewBox="0 0 1102 293" fill="none" xmlns="http://www.w3.org/2000/svg">
<path d="M63.4 7.19998C87.6667 7.19998 109.4 9.59998 128.6 14.4C147.8 19.2 164.067 27.0667 177.4 38C190.733 48.6667 200.867 62.8 207.8 80.4C215 98 218.6 119.6 218.6 145.2C218.6 169.733 215.133 191.067 208.2 209.2C201.267 227.067 191.133 241.867 177.8 253.6C164.733 265.067 148.6 273.6 129.4 279.2C110.467 284.8 88.8667 287.6 64.6 287.6C43.2667 287.6 27.2667 277.333 16.6 256.8C5.93333 236.267 0.6 206.533 0.6 167.6C0.6 159.6 0.6 150.533 0.6 140.4C0.866667 130 1.4 119.467 2.2 108.8C3 98.1333 4.33333 87.6 6.2 77.2C8.06667 66.5333 10.7333 56.8 14.2 48C18.7333 36 25.1333 26.2667 33.4 18.8C41.6667 11.0666 51.6667 7.19998 63.4 7.19998ZM102.2 100.8C98.7333 100.8 95.9333 102.267 93.8 105.2C91.6667 107.867 90.0667 111.467 89 116C87.9333 120.267 87.2667 125.333 87 131.2C86.7333 136.8 86.6 142.667 86.6 148.8C86.6 161.6 87.8 172.533 90.2 181.6C92.6 190.4 96.3333 195.333 101.4 196.4C102.467 196.667 104.067 196.8 106.2 196.8C111.267 196.8 115.4 195.2 118.6 192C121.8 188.8 124.333 184.8 126.2 180C128.067 175.2 129.4 170 130.2 164.4C131 158.8 131.4 153.6 131.4 148.8C131.4 142.667 130.733 136.8 129.4 131.2C128.333 125.333 126.6 120.267 124.2 116C121.8 111.467 118.733 107.867 115 105.2C111.267 102.267 107 100.8 102.2 100.8ZM278.556 3.19999C286.823 3.19999 293.756 3.86665 299.356 5.19999C304.956 6.53332 309.49 9.06665 312.956 12.8C316.423 16.2667 318.956 21.3333 320.556 28C322.156 34.4 322.956 42.8 322.956 53.2C322.956 65.7333 322.556 78.1333 321.756 90.4C320.956 102.4 320.556 114.533 320.556 126.8C320.556 132.4 320.823 139.067 321.356 146.8C322.156 154.533 323.49 162 325.356 169.2C327.223 176.133 329.89 182.133 333.356 187.2C336.823 192 341.49 194.4 347.356 194.4C353.223 194.4 357.89 192.667 361.356 189.2C364.823 185.733 367.356 181.333 368.956 176C370.823 170.667 372.023 164.933 372.556 158.8C373.09 152.667 373.356 146.933 373.356 141.6C373.356 128 372.823 114.4 371.756 100.8C370.69 87.2 370.156 73.4667 370.156 59.6C370.156 53.2 370.423 46.6667 370.956 40C371.49 33.3333 372.823 27.3333 374.956 22C377.356 16.4 380.956 11.8667 385.756 8.39999C390.556 4.93332 397.223 3.19999 405.756 3.19999C419.09 3.19999 429.356 5.46666 436.556 10C444.023 14.2667 449.49 20.1333 452.956 27.6C456.69 35.0666 458.823 43.6 459.356 53.2C460.156 62.8 460.556 72.6667 460.556 82.8C460.556 94.5333 460.156 106.4 459.356 118.4C458.556 130.4 458.023 141.467 457.756 151.6C457.756 161.733 457.223 171.733 456.156 181.6C455.09 191.2 453.356 201.067 450.956 211.2C448.556 221.067 444.956 232 440.156 244C437.223 251.2 432.69 257.733 426.556 263.6C420.423 269.467 413.09 274.4 404.556 278.4C396.29 282.4 386.956 285.467 376.556 287.6C366.423 289.733 355.756 290.8 344.556 290.8C335.223 290.8 326.156 290.133 317.356 288.8C308.556 287.733 300.29 285.6 292.556 282.4C285.09 279.2 278.023 274.667 271.356 268.8C264.956 262.933 259.223 255.467 254.156 246.4C248.556 236.267 244.156 224.933 240.956 212.4C237.756 199.867 235.356 187.2 233.756 174.4C232.156 161.6 231.09 149.067 230.556 136.8C230.29 124.533 230.156 113.467 230.156 103.6C230.156 97.7333 230.29 90.8 230.556 82.8C231.09 74.8 231.89 66.8 232.956 58.8C234.023 50.5333 235.49 42.6666 237.356 35.2C239.223 27.4667 241.623 21.0667 244.556 16C249.356 7.46665 260.69 3.19999 278.556 3.19999ZM536.838 7.19998C561.104 7.19998 582.838 9.59998 602.038 14.4C621.238 19.2 637.504 27.0667 650.838 38C664.171 48.6667 674.304 62.8 681.238 80.4C688.438 98 692.038 119.6 692.038 145.2C692.038 169.733 688.571 191.067 681.638 209.2C674.704 227.067 664.571 241.867 651.238 253.6C638.171 265.067 622.038 273.6 602.838 279.2C583.904 284.8 562.304 287.6 538.038 287.6C516.704 287.6 500.704 277.333 490.038 256.8C479.371 236.267 474.038 206.533 474.038 167.6C474.038 159.6 474.038 150.533 474.038 140.4C474.304 130 474.838 119.467 475.638 108.8C476.438 98.1333 477.771 87.6 479.638 77.2C481.504 66.5333 484.171 56.8 487.638 48C492.171 36 498.571 26.2667 506.838 18.8C515.104 11.0666 525.104 7.19998 536.838 7.19998ZM575.638 100.8C572.171 100.8 569.371 102.267 567.237 105.2C565.104 107.867 563.504 111.467 562.438 116C561.371 120.267 560.704 125.333 560.438 131.2C560.171 136.8 560.038 142.667 560.038 148.8C560.038 161.6 561.238 172.533 563.638 181.6C566.038 190.4 569.771 195.333 574.838 196.4C575.904 196.667 577.504 196.8 579.638 196.8C584.704 196.8 588.838 195.2 592.038 192C595.238 188.8 597.771 184.8 599.638 180C601.504 175.2 602.838 170 603.638 164.4C604.438 158.8 604.838 153.6 604.838 148.8C604.838 142.667 604.171 136.8 602.838 131.2C601.771 125.333 600.038 120.267 597.638 116C595.238 111.467 592.171 107.867 588.438 105.2C584.704 102.267 580.438 100.8 575.638 100.8ZM785.594 185.2C785.86 191.867 789.06 196 795.194 197.6C801.327 198.933 808.794 199.6 817.594 199.6C825.06 199.6 832.927 199.6 841.194 199.6C849.46 199.6 856.927 200.667 863.594 202.8C870.527 204.933 876.26 208.533 880.794 213.6C885.327 218.667 887.594 226.4 887.594 236.8C887.594 270.4 861.46 287.2 809.194 287.2C790.26 287.2 774.127 284.8 760.794 280C747.727 275.2 737.06 267.6 728.794 257.2C720.794 246.533 714.927 232.667 711.194 215.6C707.727 198.267 705.994 177.2 705.994 152.4C705.994 139.067 706.394 125.733 707.194 112.4C708.26 99.0667 709.594 86.6667 711.194 75.2C712.794 63.7333 714.66 53.6 716.794 44.8C719.194 36 721.594 29.4666 723.994 25.2C728.527 17.7333 736.127 11.8667 746.794 7.59998C757.727 3.06666 770.26 0.799994 784.394 0.799994C792.394 0.799994 801.46 1.59999 811.594 3.19999C821.994 4.53332 831.994 6.39999 841.594 8.79999C851.194 10.9333 859.86 13.3333 867.594 16C875.594 18.6667 881.194 21.3333 884.394 24C890.794 29.0666 893.994 39.2 893.994 54.4C893.994 68.8 890.927 79.4666 884.794 86.4C878.927 93.0667 869.594 96.4 856.794 96.4C847.46 96.4 837.86 95.2 827.994 92.8C818.394 90.1333 808.927 88.8 799.594 88.8C795.327 88.8 792.394 89.3333 790.794 90.4C789.46 91.2 788.794 92.8 788.794 95.2C788.794 100.267 790.927 103.867 795.194 106C799.727 107.867 805.194 109.333 811.594 110.4C818.26 111.2 825.327 111.867 832.794 112.4C840.527 112.933 847.594 114.267 853.994 116.4C860.66 118.267 866.127 121.467 870.394 126C874.927 130.533 877.194 137.067 877.194 145.6C877.194 157.067 873.194 166 865.194 172.4C857.46 178.8 846.66 182 832.794 182C828.527 182 824.26 181.867 819.994 181.6C815.994 181.067 811.86 180.8 807.594 180.8C798.26 180.8 790.927 182.267 785.594 185.2ZM984.394 211.2C989.727 211.2 994.66 209.467 999.194 206C1003.99 202.267 1006.39 198.267 1006.39 194C1006.39 189.733 1004.13 185.867 999.594 182.4C995.327 178.667 989.727 174.8 982.794 170.8C976.127 166.8 968.927 162.4 961.194 157.6C953.46 152.533 946.127 146.533 939.194 139.6C932.527 132.667 926.927 124.533 922.394 115.2C918.127 105.6 915.994 94.4 915.994 81.6C915.994 69.6 918.127 58.8 922.394 49.2C926.927 39.6 933.194 31.4667 941.194 24.8C949.46 17.8667 959.327 12.6667 970.794 9.19998C982.26 5.46665 995.194 3.59998 1009.59 3.59998C1023.19 3.59998 1035.59 5.33332 1046.79 8.79999C1058.26 12 1067.99 16.5333 1075.99 22.4C1084.26 28.2666 1090.66 35.3333 1095.19 43.6C1099.73 51.6 1101.99 60.5333 1101.99 70.4C1101.99 82.6667 1098.66 92.8 1091.99 100.8C1085.33 108.8 1076.79 112.8 1066.39 112.8C1059.46 112.8 1054.79 111.2 1052.39 108C1049.99 104.8 1047.99 101.333 1046.39 97.6C1045.06 93.6 1043.33 90 1041.19 86.8C1039.06 83.6 1034.93 82 1028.79 82C1018.39 82 1013.19 86.8 1013.19 96.4C1013.19 102.8 1015.33 107.867 1019.59 111.6C1024.13 115.333 1029.59 118.8 1035.99 122C1042.39 124.933 1049.46 128.133 1057.19 131.6C1064.93 134.8 1071.99 139.067 1078.39 144.4C1084.79 149.733 1090.13 156.533 1094.39 164.8C1098.93 173.067 1101.19 183.733 1101.19 196.8C1101.19 260.533 1064.93 292.4 992.394 292.4C979.06 292.4 966.794 290.8 955.594 287.6C944.66 284.4 935.194 279.733 927.194 273.6C919.46 267.2 913.327 259.467 908.794 250.4C904.527 241.067 902.394 230.4 902.394 218.4C902.394 203.2 905.594 191.6 911.994 183.6C918.394 175.6 927.994 171.6 940.794 171.6C946.394 171.6 951.194 172.667 955.194 174.8C959.194 176.933 961.194 180.133 961.194 184.4C961.194 191.333 963.327 197.6 967.594 203.2C971.86 208.533 977.46 211.2 984.394 211.2Z" fill="#FF5B01"/>
</svg>
