<svg width="500" height="500" viewBox="0 0 500 500" fill="none" xmlns="http://www.w3.org/2000/svg">
<rect width="500" height="500" rx="90" fill="black"/>
<path d="M67.15 199.7C76.25 199.7 84.4 200.6 91.6 202.4C98.8 204.2 104.9 207.15 109.9 211.25C114.9 215.25 118.7 220.55 121.3 227.15C124 233.75 125.35 241.85 125.35 251.45C125.35 260.65 124.05 268.65 121.45 275.45C118.85 282.15 115.05 287.7 110.05 292.1C105.15 296.4 99.1 299.6 91.9 301.7C84.8 303.8 76.7 304.85 67.6 304.85C59.6 304.85 53.6 301 49.6 293.3C45.6 285.6 43.6 274.45 43.6 259.85C43.6 256.85 43.6 253.45 43.6 249.65C43.7 245.75 43.9 241.8 44.2 237.8C44.5 233.8 45 229.85 45.7 225.95C46.4 221.95 47.4 218.3 48.7 215C50.4 210.5 52.8 206.85 55.9 204.05C59 201.15 62.75 199.7 67.15 199.7ZM81.7 234.8C80.4 234.8 79.35 235.35 78.55 236.45C77.75 237.45 77.15 238.8 76.75 240.5C76.35 242.1 76.1 244 76 246.2C75.9 248.3 75.85 250.5 75.85 252.8C75.85 257.6 76.3 261.7 77.2 265.1C78.1 268.4 79.5 270.25 81.4 270.65C81.8 270.75 82.4 270.8 83.2 270.8C85.1 270.8 86.65 270.2 87.85 269C89.05 267.8 90 266.3 90.7 264.5C91.4 262.7 91.9 260.75 92.2 258.65C92.5 256.55 92.65 254.6 92.65 252.8C92.65 250.5 92.4 248.3 91.9 246.2C91.5 244 90.85 242.1 89.95 240.5C89.05 238.8 87.9 237.45 86.5 236.45C85.1 235.35 83.5 234.8 81.7 234.8ZM147.834 198.2C150.934 198.2 153.534 198.45 155.634 198.95C157.734 199.45 159.434 200.4 160.734 201.8C162.034 203.1 162.984 205 163.584 207.5C164.184 209.9 164.484 213.05 164.484 216.95C164.484 221.65 164.334 226.3 164.034 230.9C163.734 235.4 163.584 239.95 163.584 244.55C163.584 246.65 163.684 249.15 163.884 252.05C164.184 254.95 164.684 257.75 165.384 260.45C166.084 263.05 167.084 265.3 168.384 267.2C169.684 269 171.434 269.9 173.634 269.9C175.834 269.9 177.584 269.25 178.884 267.95C180.184 266.65 181.134 265 181.734 263C182.434 261 182.884 258.85 183.084 256.55C183.284 254.25 183.384 252.1 183.384 250.1C183.384 245 183.184 239.9 182.784 234.8C182.384 229.7 182.184 224.55 182.184 219.35C182.184 216.95 182.284 214.5 182.484 212C182.684 209.5 183.184 207.25 183.984 205.25C184.884 203.15 186.234 201.45 188.034 200.15C189.834 198.85 192.334 198.2 195.534 198.2C200.534 198.2 204.384 199.05 207.084 200.75C209.884 202.35 211.934 204.55 213.234 207.35C214.634 210.15 215.434 213.35 215.634 216.95C215.934 220.55 216.084 224.25 216.084 228.05C216.084 232.45 215.934 236.9 215.634 241.4C215.334 245.9 215.134 250.05 215.034 253.85C215.034 257.65 214.834 261.4 214.434 265.1C214.034 268.7 213.384 272.4 212.484 276.2C211.584 279.9 210.234 284 208.434 288.5C207.334 291.2 205.634 293.65 203.334 295.85C201.034 298.05 198.284 299.9 195.084 301.4C191.984 302.9 188.484 304.05 184.584 304.85C180.784 305.65 176.784 306.05 172.584 306.05C169.084 306.05 165.684 305.8 162.384 305.3C159.084 304.9 155.984 304.1 153.084 302.9C150.284 301.7 147.634 300 145.134 297.8C142.734 295.6 140.584 292.8 138.684 289.4C136.584 285.6 134.934 281.35 133.734 276.65C132.534 271.95 131.634 267.2 131.034 262.4C130.434 257.6 130.034 252.9 129.834 248.3C129.734 243.7 129.684 239.55 129.684 235.85C129.684 233.65 129.734 231.05 129.834 228.05C130.034 225.05 130.334 222.05 130.734 219.05C131.134 215.95 131.684 213 132.384 210.2C133.084 207.3 133.984 204.9 135.084 203C136.884 199.8 141.134 198.2 147.834 198.2ZM244.689 199.7C253.789 199.7 261.939 200.6 269.139 202.4C276.339 204.2 282.439 207.15 287.439 211.25C292.439 215.25 296.239 220.55 298.839 227.15C301.539 233.75 302.889 241.85 302.889 251.45C302.889 260.65 301.589 268.65 298.989 275.45C296.389 282.15 292.589 287.7 287.589 292.1C282.689 296.4 276.639 299.6 269.439 301.7C262.339 303.8 254.239 304.85 245.139 304.85C237.139 304.85 231.139 301 227.139 293.3C223.139 285.6 221.139 274.45 221.139 259.85C221.139 256.85 221.139 253.45 221.139 249.65C221.239 245.75 221.439 241.8 221.739 237.8C222.039 233.8 222.539 229.85 223.239 225.95C223.939 221.95 224.939 218.3 226.239 215C227.939 210.5 230.339 206.85 233.439 204.05C236.539 201.15 240.289 199.7 244.689 199.7ZM259.239 234.8C257.939 234.8 256.889 235.35 256.089 236.45C255.289 237.45 254.689 238.8 254.289 240.5C253.889 242.1 253.639 244 253.539 246.2C253.439 248.3 253.389 250.5 253.389 252.8C253.389 257.6 253.839 261.7 254.739 265.1C255.639 268.4 257.039 270.25 258.939 270.65C259.339 270.75 259.939 270.8 260.739 270.8C262.639 270.8 264.189 270.2 265.389 269C266.589 267.8 267.539 266.3 268.239 264.5C268.939 262.7 269.439 260.75 269.739 258.65C270.039 256.55 270.189 254.6 270.189 252.8C270.189 250.5 269.939 248.3 269.439 246.2C269.039 244 268.389 242.1 267.489 240.5C266.589 238.8 265.439 237.45 264.039 236.45C262.639 235.35 261.039 234.8 259.239 234.8ZM337.973 266.45C338.073 268.95 339.273 270.5 341.573 271.1C343.873 271.6 346.673 271.85 349.973 271.85C352.773 271.85 355.723 271.85 358.823 271.85C361.923 271.85 364.723 272.25 367.223 273.05C369.823 273.85 371.973 275.2 373.673 277.1C375.373 279 376.223 281.9 376.223 285.8C376.223 298.4 366.423 304.7 346.823 304.7C339.723 304.7 333.673 303.8 328.673 302C323.773 300.2 319.773 297.35 316.673 293.45C313.673 289.45 311.473 284.25 310.073 277.85C308.773 271.35 308.123 263.45 308.123 254.15C308.123 249.15 308.273 244.15 308.573 239.15C308.973 234.15 309.473 229.5 310.073 225.2C310.673 220.9 311.373 217.1 312.173 213.8C313.073 210.5 313.973 208.05 314.873 206.45C316.573 203.65 319.423 201.45 323.423 199.85C327.523 198.15 332.223 197.3 337.523 197.3C340.523 197.3 343.923 197.6 347.723 198.2C351.623 198.7 355.373 199.4 358.973 200.3C362.573 201.1 365.823 202 368.723 203C371.723 204 373.823 205 375.023 206C377.423 207.9 378.623 211.7 378.623 217.4C378.623 222.8 377.473 226.8 375.173 229.4C372.973 231.9 369.473 233.15 364.673 233.15C361.173 233.15 357.573 232.7 353.873 231.8C350.273 230.8 346.723 230.3 343.223 230.3C341.623 230.3 340.523 230.5 339.923 230.9C339.423 231.2 339.173 231.8 339.173 232.7C339.173 234.6 339.973 235.95 341.573 236.75C343.273 237.45 345.323 238 347.723 238.4C350.223 238.7 352.873 238.95 355.673 239.15C358.573 239.35 361.223 239.85 363.623 240.65C366.123 241.35 368.173 242.55 369.773 244.25C371.473 245.95 372.323 248.4 372.323 251.6C372.323 255.9 370.823 259.25 367.823 261.65C364.923 264.05 360.873 265.25 355.673 265.25C354.073 265.25 352.473 265.2 350.873 265.1C349.373 264.9 347.823 264.8 346.223 264.8C342.723 264.8 339.973 265.35 337.973 266.45ZM412.523 276.2C414.523 276.2 416.373 275.55 418.073 274.25C419.873 272.85 420.773 271.35 420.773 269.75C420.773 268.15 419.923 266.7 418.223 265.4C416.623 264 414.523 262.55 411.923 261.05C409.423 259.55 406.723 257.9 403.823 256.1C400.923 254.2 398.173 251.95 395.573 249.35C393.073 246.75 390.973 243.7 389.273 240.2C387.673 236.6 386.873 232.4 386.873 227.6C386.873 223.1 387.673 219.05 389.273 215.45C390.973 211.85 393.323 208.8 396.323 206.3C399.423 203.7 403.123 201.75 407.423 200.45C411.723 199.05 416.573 198.35 421.973 198.35C427.073 198.35 431.723 199 435.923 200.3C440.223 201.5 443.873 203.2 446.873 205.4C449.973 207.6 452.373 210.25 454.073 213.35C455.773 216.35 456.623 219.7 456.623 223.4C456.623 228 455.373 231.8 452.873 234.8C450.373 237.8 447.173 239.3 443.273 239.3C440.673 239.3 438.923 238.7 438.023 237.5C437.123 236.3 436.373 235 435.773 233.6C435.273 232.1 434.623 230.75 433.823 229.55C433.023 228.35 431.473 227.75 429.173 227.75C425.273 227.75 423.323 229.55 423.323 233.15C423.323 235.55 424.123 237.45 425.723 238.85C427.423 240.25 429.473 241.55 431.873 242.75C434.273 243.85 436.923 245.05 439.823 246.35C442.723 247.55 445.373 249.15 447.773 251.15C450.173 253.15 452.173 255.7 453.773 258.8C455.473 261.9 456.323 265.9 456.323 270.8C456.323 294.7 442.723 306.65 415.523 306.65C410.523 306.65 405.923 306.05 401.723 304.85C397.623 303.65 394.073 301.9 391.073 299.6C388.173 297.2 385.873 294.3 384.173 290.9C382.573 287.4 381.773 283.4 381.773 278.9C381.773 273.2 382.973 268.85 385.373 265.85C387.773 262.85 391.373 261.35 396.173 261.35C398.273 261.35 400.073 261.75 401.573 262.55C403.073 263.35 403.823 264.55 403.823 266.15C403.823 268.75 404.623 271.1 406.223 273.2C407.823 275.2 409.923 276.2 412.523 276.2Z" fill="#FF5B01"/>
</svg>
